<svg xmlns="http://www.w3.org/2000/svg" width="85.968" height="85.968" viewBox="0 0 85.968 85.968">
  <defs>
    <style>
      .cls-1 {
        fill: #e6472e;
        fill-rule: evenodd;
      }
    </style>
  </defs>
  <path id="Каталог" class="cls-1" d="M470.784,409.7a1.344,1.344,0,1,1-2.687,0V331.787a1.344,1.344,0,1,1,2.687,0V409.7Zm-72.535,5.357a1.344,1.344,0,1,1-2.687,0V331.792a1.344,1.344,0,0,1,2.687,0v83.267ZM396.9,416.4a1.343,1.343,0,1,1,0-2.686h83.271a1.343,1.343,0,1,1,0,2.686H396.9Zm84.614-1.34a1.343,1.343,0,0,1-2.686,0V339.85a1.343,1.343,0,0,1,2.686,0v75.206ZM396.9,333.136a1.344,1.344,0,0,1,0-2.687H469.44a1.344,1.344,0,1,1,0,2.687H396.9Zm34.922,10.741a1.343,1.343,0,1,1,0-2.686h26.867a1.343,1.343,0,1,1,0,2.686H431.825Zm-24.177-2.686h13.426a1.343,1.343,0,0,1,1.343,1.343v10.747a1.343,1.343,0,0,1-1.343,1.343H407.648a1.343,1.343,0,0,1-1.344-1.343V342.534a1.346,1.346,0,0,1,1.344-1.343h0Zm12.085,2.686H408.991v8.061h10.742v-8.061ZM476.149,409.7a1.344,1.344,0,0,1-2.687,0V337.164a1.344,1.344,0,1,1,2.687,0V409.7Zm-68.5-44.329a1.344,1.344,0,1,1,0-2.687h26.864a1.344,1.344,0,0,1,0,2.687H407.651Zm0,10.744a1.343,1.343,0,1,1,0-2.686h26.864a1.343,1.343,0,1,1,0,2.686H407.651Zm0,21.5a1.344,1.344,0,1,1,0-2.687H458.7a1.344,1.344,0,0,1,0,2.687H407.648Zm37.612-34.931H458.7a1.345,1.345,0,0,1,1.344,1.345v21.487a1.346,1.346,0,0,1-1.344,1.344H445.26a1.346,1.346,0,0,1-1.344-1.344V364.029a1.348,1.348,0,0,1,1.344-1.345h0Zm12.091,2.687H446.6v18.8h10.747v-18.8Zm-25.526-10.747a1.343,1.343,0,1,1,0-2.686h26.867a1.343,1.343,0,1,1,0,2.686H431.825Zm-24.174,32.238a1.343,1.343,0,1,1,0-2.686h26.864a1.343,1.343,0,0,1,0,2.686H407.651Z" transform="translate(-395.563 -330.438)"/>
</svg>
