<svg xmlns="http://www.w3.org/2000/svg" width="94.469" height="86.812" viewBox="0 0 94.469 86.812">
  <defs>
    <style>
      .cls-1 {
        fill: #838789;
        fill-rule: evenodd;
      }
    </style>
  </defs>
  <path id="Пакет" class="cls-1" d="M921.96,769.786h-44.6a1.387,1.387,0,0,1-1.378-1.54l7.614-69.083a1.388,1.388,0,0,1,1.379-1.235H895.5v-4.7a13.216,13.216,0,0,1,25.883,0v4.7h11.2a1.387,1.387,0,0,1,1.383,1.268l1.733,20.217h3.317v-2.806a10.657,10.657,0,0,1,20.574,0v2.806h5.406a1.387,1.387,0,0,1,1.382,1.269l4.082,47.6a1.388,1.388,0,0,1-1.382,1.506H921.96Zm37.21-2.775h8.39l-3.843-44.824h-1.188Zm-19.395,0h16.613l3.359-44.824H954.01v2.22a1.387,1.387,0,1,1-2.773,0v-2.22h-9.452v2.22a1.387,1.387,0,1,1-2.774,0v-2.22h-3.08Zm-15.553,0h10.654l-7.319-6.563Zm-16.2,0h12.656l3.386-45.186,0-.041,1.579-21.082h-9.627v3.849a1.387,1.387,0,1,1-2.774,0V700.7H898.271v3.849a1.387,1.387,0,1,1-2.773,0V700.7h-9.279l-7.308,66.309h2.21L884.41,742.1a1.388,1.388,0,0,1,1.376-1.205h4.246v-3.622a4.74,4.74,0,1,1,9.48,0V740.9h3.044a1.387,1.387,0,0,1,1.368,1.162Zm-7.981,0h5.169l-3.549-21.626Zm-16.118,0h13.336l1.749-23.338H887Zm44.577-9.447,8.324,7.463L931.3,700.7h-2.879l-1.591,21.228Zm-3.374-12.795L923.862,761.6l1.874-3.688Zm-32.317-3.87h3.933v-3.622a1.967,1.967,0,1,0-3.933,0V740.9h0Zm61.2-21.487h2.8v-2.806a4.732,4.732,0,0,0-4.474-4.721,7.469,7.469,0,0,1,1.675,4.721v2.806Zm-6.653,0h3.879v-2.806a2.4,2.4,0,1,0-3.879,0v2.806Zm-5.572,0h2.8v-2.806a7.469,7.469,0,0,1,1.675-4.721,4.732,4.732,0,0,0-4.474,4.721v2.806Zm-25.769-21.485h2.592v-4.7a7.5,7.5,0,0,0-5.592-7.245,10.232,10.232,0,0,1,3,7.245v4.7Zm-12.378,0h9.6v-4.7a5.144,5.144,0,1,0-9.6,0v4.7Zm-5.367,0h2.593v-4.7a10.232,10.232,0,0,1,3-7.245,7.5,7.5,0,0,0-5.593,7.245v4.7h0Z" transform="translate(-875.969 -682.969)"/>
</svg>
