<svg xmlns="http://www.w3.org/2000/svg" width="99.656" height="82.562" viewBox="0 0 99.656 82.562">
  <defs>
    <style>
      .cls-1 {
        fill: #838789;
        fill-rule: evenodd;
      }
    </style>
  </defs>
  <path id="Карта" class="cls-1" d="M746.405,724.908a6.328,6.328,0,1,1-6.307,6.328A6.319,6.319,0,0,1,746.405,724.908Zm61.43,5.083,4.276-33.828-30.68-11.68-36.8,17.635-32.065-13.585,4.33,36.088-4.15,35.536,34.069,6.412,34.749-6.639,30.668,7.1ZM781.6,686.921l28.608,10.99L808.2,712.989l-28.662-6.731Zm-2.45.876-2.293,17.491,0.263,0.138-19.613,2.427-0.112.414c-0.024.091-2.546,8.732-4.839,12.4a18.564,18.564,0,0,0-6.022-1.85l0.054-15.466Zm-3.143,37.5-18.265,1.657c-0.877-2.492-1.679-4.631-3.77-6.161,2.133-3.417,4.059-10.032,4.544-11.778l17.645-2.285Zm-32.162-21.21,1.193,14.9c-4.955.685-9.42,3.644-10.909,8.308l-15.358-1.235,0.124-13.856c4.607-.306,8.063-1.81,10.277-4.494a17.877,17.877,0,0,0,3.253-8.834Zm-29.276-12.539,16.446,6.509c-0.04,1.959-.912,6.521-2.826,8.838-2,2.416-6.461,3.767-10.744,4.038Zm0.392,66.347,3.161-30.027L733.55,729.3c-0.011.222-.033,1.71-0.033,1.936a12.874,12.874,0,0,0,2.789,8.006l-7.119,5.735-2.1,15.9Zm29.228,5.625-14.99-1.973,1.172-15.882,6.775-5.456a12.829,12.829,0,0,0,8.033,3.891Zm-8.116-32.284A10.331,10.331,0,1,1,746.405,741.6,10.359,10.359,0,0,1,736.076,731.237Zm10.91,32.661-0.611.093,2.153-20.017c6.1-1.02,10.074-5.99,10.074-12.4,0-.345-0.141-2.993-0.167-3.335l16.741-.446,1.33,13.633c-6.99.33-12.214,2.483-15.5,6.466-3.835,4.647-4.016,12.227-3.817,15.091Zm11.762-1.506c-0.155-2.719-.216-9.486,3.241-13.674,3.059-3.7,7.994-5.7,14.64-6.006l2.419,16.079Zm20.669-54.843,28.049,6.86-1.337,12.675L777.9,725.263Zm21.745,30.75-12.305-1.468,2.255,21.9-9.86-.551-3.11-30.751,0.6-.165,26.817,2,3.883,34.8-16.952-3.873-2.2-21.89,10.969,1.278Zm-54.514-11.013a3.928,3.928,0,1,1-3.928,3.928A3.928,3.928,0,0,1,746.648,727.286Z" transform="translate(-712.563 -684.469)"/>
</svg>
