<svg xmlns="http://www.w3.org/2000/svg" width="97.31" height="77.625" viewBox="0 0 97.31 77.625">
  <defs>
    <style>
      .cls-1 {
        fill: #838789;
        fill-rule: evenodd;
      }
    </style>
  </defs>
  <path id="Журнал" class="cls-1" d="M1133.85,361.961c-0.36-.316-1.67-1.238-3.46.323-3.81,3.317-6.75,3.253-7.76,3.1,6.47-11.23,5.67-11.937,4.59-12.864-0.36-.313-1.67-1.214-3.46.337-3.55,3.089-6.24,2.006-7.16,1.455l7.91-13.224a2.15,2.15,0,0,0-3.16-2.807c-0.89.682-3.35,1.828-9.9,1.828-14.61,0-37.26-5.613-37.49-5.668a2.148,2.148,0,0,0-2.29.859c-32.05,45.9-34.66,52.068-34.34,53.848v0.01a2.149,2.149,0,0,0,.77,2.268,2.12,2.12,0,0,0,1.33,2.425c41.28,15.053,56.3,18.159,61.97,18.159,2.86,0,3.35-.788,3.62-1.245C1136.5,364.305,1135.61,363.524,1133.85,361.961Zm-8.21-7.165c-5.23,9.364-17.43,30.851-26.01,44.267-1.33.438-22.47,1.65-59.74-9.88,1.54-.173,9.91-0.109,11.71-0.109,16.39,0,37.82,6.955,38.04,7.031a2.1,2.1,0,0,0,.67.107,2.162,2.162,0,0,0,1.85-1.052l23.13-38.6C1112.97,355.182,1122.32,355.926,1125.64,354.8Zm-51.83-18.355c5.34,1.266,23.59,5.448,36.73,5.448,2.4,0,9.21-.684,11.02-0.966l-31.13,52.2c-5.45-1.667-24.8-6.12-39.37-6.12-3.09,0-8.96-.367-11.41.1C1044.83,378.3,1063.26,351.586,1073.81,336.441Zm30.26,72.552c-0.03,0-3.65.641-3.68,0.651-0.79.03-4.3-.839-8.53-1.7-5.24-1.073-36.51-10.443-51.7-16.5,11.62,2.542,46.55,10.964,53.34,10.964,3.85,0,6.46-.569,7.34-1.916v0c9.26-14.478,16.74-27.153,20.85-34.06-0.86.635,0.77,1.229,1.36,1.178,0.16,0.059,4.86-1.483,8.5-2.681C1126,374.035,1112.22,396.949,1104.07,408.993Zm-10.82-48.811a7.128,7.128,0,0,0-3.36-2.146l-1.16-.478a29.4,29.4,0,0,0-3.28-1.093,1.731,1.731,0,0,0-.3-0.043,2.686,2.686,0,0,1-.55-0.067,7.068,7.068,0,0,0-1.49-.142c-0.19,0-4.85.084-7.32,1.859a5.255,5.255,0,0,0-1.85,3.129,1.511,1.511,0,0,0-.34.084,1.727,1.727,0,0,0-.98,1.614,0.973,0.973,0,0,0,.22.958c-0.77,2.562,1.75,5.559,5.3,6.236,4.14,0.788,9.39-.936,11.48-3.04a2.661,2.661,0,0,0,1.23-.681c0.51-.413,1.3-1.147.99-1.62a0.913,0.913,0,0,0-.07-0.071C1092.86,363.816,1094.69,361.961,1093.25,360.182Zm-3.18,4.3a0.269,0.269,0,0,0-.07.432,0.647,0.647,0,0,0,.28.18,3.615,3.615,0,0,1-.78.808,0.149,0.149,0,0,0-.05.041,1.21,1.21,0,0,1-.66.381,0.814,0.814,0,0,0-.46.2c-1.64,1.786-6.34,3.421-9.71,2.781-2.83-.537-4.93-3.265-4.16-5.41a0.289,0.289,0,0,0-.14-0.328,0.484,0.484,0,0,1-.12-0.531c0-.016.01-0.031,0.01-0.046a2.3,2.3,0,0,1,.23-0.869,1.546,1.546,0,0,0,.46-0.006,0.586,0.586,0,0,0,.51-0.332c0.55-2.443,1.61-3.15,1.61-3.15a0.121,0.121,0,0,1,.05-0.026c2.02-1.469,6.12-1.542,6.14-1.542a4.941,4.941,0,0,1,.72.043,5.313,5.313,0,0,0,1,.15c0.36,0.1,1.43.412,2.88,0.973l1.15,0.483a6,6,0,0,1,2.8,1.734c0.01,0.01.02,0.028,0.03,0.038C1093.13,362.113,1090.8,363.951,1090.07,364.478Zm-36.7,12.969c5.84,2.877,16.34,5.2,16.34,5.2,0.57,0.107,1.12.2,1.66,0.284v0.026s10.85,1.754,18.6,1.449a2.107,2.107,0,0,0,1.79-1.088s2.74-5.171,1.19-8.036a5.172,5.172,0,0,0-2.24-1.54s-0.15-.064-0.39-0.155c-1.51-.778-3.03-1.375-3.03-1.375-0.33-.14-0.6-0.267-0.85-0.387a7.44,7.44,0,0,1-1.81-1.455c-8.68,3.517-11.73-2.241-11.73-2.241-1.12.814-8.49,0.6-8.49,0.6a11.348,11.348,0,0,0-3.46.463c-4.35,1.733-7.79,6.774-7.79,6.774C1052.49,377.142,1053.37,377.447,1053.37,377.447Zm30.93-6.968c0.11-.035.22-0.069,0.33-0.109v-0.058C1084.52,370.375,1084.41,370.416,1084.3,370.479Zm-11.37-2.369h0v0Zm0-.015-0.04.036,0.04-.021V368.1Zm-0.97-19.548a2.636,2.636,0,0,0,1.11-.064,1.636,1.636,0,0,0,.84-0.508l1.36-1.632a3.92,3.92,0,0,1,1.37-1.1,3.472,3.472,0,0,1,1.98-.171,1.274,1.274,0,0,1,.79.285,0.369,0.369,0,0,1,0,.466,4.28,4.28,0,0,1-.52.711l-1.59,1.912a0.458,0.458,0,0,0-.12.62,1.246,1.246,0,0,0,.79.32,2.743,2.743,0,0,0,1.12-.056,1.579,1.579,0,0,0,.84-0.516l1.34-1.6a3.882,3.882,0,0,1,1.17-1.031,4.154,4.154,0,0,1,1.03-.276,3.836,3.836,0,0,1,1.08-.006,1.334,1.334,0,0,1,.8.287,0.376,0.376,0,0,1,.06.448,3.212,3.212,0,0,1-.45.63l-1.68,2.016a0.462,0.462,0,0,0-.11.618,1.345,1.345,0,0,0,.8.328,2.877,2.877,0,0,0,1.13-.051,1.662,1.662,0,0,0,.83-0.516l1.95-2.343a1.567,1.567,0,0,0,.53-1.071,1.083,1.083,0,0,0-.67-0.714,5.462,5.462,0,0,0-1.65-.448,7.72,7.72,0,0,0-1.79-.053,9.624,9.624,0,0,0-1.85.356,1.27,1.27,0,0,0-.68-0.7,4.917,4.917,0,0,0-1.51-.417,8.925,8.925,0,0,0-1.84-.061,9.716,9.716,0,0,0-1.88.348l0.1-.114a0.343,0.343,0,0,0,.03-0.506,1.317,1.317,0,0,0-.74-0.285,2.568,2.568,0,0,0-1.03.051,1.444,1.444,0,0,0-.76.463l-2.86,3.436a0.465,0.465,0,0,0-.11.621A1.29,1.29,0,0,0,1071.96,348.547Zm23.09-.053q-0.765-.024-1.8-0.062c-0.69-.033-1.14-0.053-1.31-0.053a7.836,7.836,0,0,0-2.22.208,2.654,2.654,0,0,0-1.37.745,0.7,0.7,0,0,0-.16.735,1.377,1.377,0,0,0,.74.656,5.582,5.582,0,0,0,1.59.426,10.908,10.908,0,0,0,2.08.105,16.2,16.2,0,0,0,2.22-.252,1.779,1.779,0,0,0,.39.621,1.18,1.18,0,0,0,.64.287,2.74,2.74,0,0,0,.96-0.038,1.143,1.143,0,0,0,.66-0.285,1.292,1.292,0,0,0,.15-0.506,1.573,1.573,0,0,1,.35-0.739c0.2-.24.39-0.458,0.55-0.651s0.38-.438.61-0.712a1.614,1.614,0,0,0,.5-1.131,1.17,1.17,0,0,0-.88-0.781,11.4,11.4,0,0,0-2.5-.557,15.263,15.263,0,0,0-2.68-.167,7.7,7.7,0,0,0-1.91.287,2.067,2.067,0,0,0-.98.537,0.243,0.243,0,0,0,.04.376,1.352,1.352,0,0,0,.63.234,1.982,1.982,0,0,0,.7,0c0.14-.043.4-0.132,0.77-0.266a5.237,5.237,0,0,1,1.18-.265,6.907,6.907,0,0,1,1.56.084,2.124,2.124,0,0,1,1.31.432,0.658,0.658,0,0,1-.17.753C1096.1,348.519,1095.55,348.508,1095.05,348.494Zm0.91,0.917a2.733,2.733,0,0,1-1.1.846,4.436,4.436,0,0,1-1.27.272,6.992,6.992,0,0,1-1.54-.04,1.874,1.874,0,0,1-.99-0.356,0.338,0.338,0,0,1-.05-0.527,1.157,1.157,0,0,1,.7-0.358,5.03,5.03,0,0,1,.97-0.089c0.31,0,.84.028,1.62,0.059s1.38,0.035,1.81.025Zm9.16,4.3a2.854,2.854,0,0,1-1.07.252,7.712,7.712,0,0,1-1.65-.088,5.628,5.628,0,0,1-.82-0.164,1.883,1.883,0,0,1-.54-0.218,1.563,1.563,0,0,1-.31-0.269c-0.09-.1-0.17-0.209-0.24-0.308a1.116,1.116,0,0,0-.78-0.368,2.517,2.517,0,0,0-.9.03,1.116,1.116,0,0,0-.61.312,0.46,0.46,0,0,0,.1.646,3.129,3.129,0,0,0,1.23.671,11.655,11.655,0,0,0,2.21.506,17.158,17.158,0,0,0,2.52.2,8.1,8.1,0,0,0,1.93-.2,5.106,5.106,0,0,0,1.47-.585,4.972,4.972,0,0,0,1.13-.994l2.91-3.487a0.939,0.939,0,0,0,.3-0.681,0.843,0.843,0,0,0-.78-0.366,2.407,2.407,0,0,0-.99.053,1.388,1.388,0,0,0-.74.432l-0.14.166a2.263,2.263,0,0,0-.97-0.822,5.621,5.621,0,0,0-1.73-.462,9.067,9.067,0,0,0-1.79-.084,8.6,8.6,0,0,0-1.71.259,5.967,5.967,0,0,0-1.51.61,4.238,4.238,0,0,0-1.14.931,1.89,1.89,0,0,0-.54,1.355,1.436,1.436,0,0,0,.76,1.073,5.044,5.044,0,0,0,1.99.622,8.107,8.107,0,0,0,3.86-.343c-0.33.4-.6,0.671-0.76,0.849A2.512,2.512,0,0,1,1105.12,353.714Zm0.43-1.748a5.248,5.248,0,0,1-1.35-.01,2.193,2.193,0,0,1-1.44-.62,0.934,0.934,0,0,1,.25-1.2,3.208,3.208,0,0,1,1.6-1.014,4.718,4.718,0,0,1,2.07-.145,2.077,2.077,0,0,1,1.48.661,1.008,1.008,0,0,1-.27,1.238,2.86,2.86,0,0,1-1.01.739A4.59,4.59,0,0,1,1105.55,351.966Zm-50.37,23.7s5.66-5.547,9.82-5.778,4.96,0.578,7.51-.462c0.69,1.618,2.31,5.777,11.9,2.426,2.08,1.5,5.2,2.889,6.7,3.929s-0.81,6.585-2.08,7.048S1063.38,382.024,1055.18,375.671Z" transform="translate(-1037.25 -334.375)"/>
</svg>
