<svg xmlns="http://www.w3.org/2000/svg" width="60.438" height="85" viewBox="0 0 60.438 85">
  <defs>
    <style>
      .cls-1 {
        fill: #838789;
        fill-rule: evenodd;
      }
    </style>
  </defs>
  <path id="Ежедневник" class="cls-1" d="M629.687,530a1.277,1.277,0,0,0,1.277-1.277V511.131a1.276,1.276,0,0,0-1.277-1.276h-2.554V507.3a1.277,1.277,0,0,0-1.277-1.277H576.069a1.276,1.276,0,0,0-1.276,1.277v26.105h-0.3a3.952,3.952,0,1,0,0,7.9h0.3v10.607h-0.3a3.951,3.951,0,1,0,0,7.9h0.3v25.913a1.267,1.267,0,0,0,.354,1.074l0.02,0.021L579,590.655a1.278,1.278,0,0,0,.9.374h49.786a1.276,1.276,0,0,0,1.277-1.276V532.936a1.277,1.277,0,0,0-2.553,0v55.54H580.429l-1.278-1.277h26.141a1.277,1.277,0,0,0,0-2.553H577.346V559.818h0.736a3.951,3.951,0,1,0,0-7.9h-0.736V541.309h0.736a3.951,3.951,0,1,0,0-7.9h-0.736V508.578H580.5v5.594a1.277,1.277,0,1,0,2.553,0v-5.594h5.362v13.3l-1.768-1.617a1.277,1.277,0,0,0-1.711-.012l-1.883,1.679v-3.675a1.277,1.277,0,1,0-2.553,0v6.523a1.277,1.277,0,0,0,2.126.953l3.148-2.806,3.056,2.795a1.277,1.277,0,0,0,2.139-.942v-16.2H624.58v76.068h-15.2a1.277,1.277,0,1,0,0,2.553h16.478a1.277,1.277,0,0,0,1.277-1.277V512.408h1.277v16.315A1.277,1.277,0,0,0,629.687,530Zm-50.206,25.866a1.4,1.4,0,0,1-1.4,1.4H574.5a1.4,1.4,0,0,1,0-2.8h3.586A1.4,1.4,0,0,1,579.481,555.866Zm0-18.508a1.4,1.4,0,0,1-1.4,1.4H574.5a1.4,1.4,0,0,1,0-2.8h3.586A1.4,1.4,0,0,1,579.481,537.358ZM589.9,554.046v5.445a1.276,1.276,0,0,0,1.276,1.276H611.6a1.276,1.276,0,0,0,1.276-1.276v-1.733a1.277,1.277,0,1,0-2.553,0v0.456H592.448v-4.168a8.877,8.877,0,0,1,5.318-8.165,7.723,7.723,0,0,0,7.242,0,8.944,8.944,0,0,1,5.313,8.167,1.277,1.277,0,1,0,2.553,0,11.5,11.5,0,0,0-5.67-9.906,7.738,7.738,0,0,0-5.819-12.846,1.276,1.276,0,1,0,0,2.552,5.193,5.193,0,1,1-3.671,1.521,1.277,1.277,0,0,0-1.806-1.8,7.734,7.734,0,0,0-.344,10.576A11.412,11.412,0,0,0,589.9,554.046Zm1.276,11.572h20.377a1.276,1.276,0,1,0,0-2.552H591.171A1.276,1.276,0,0,0,591.171,565.618Z" transform="translate(-570.531 -506.031)"/>
</svg>
