<svg xmlns="http://www.w3.org/2000/svg" width="88.719" height="85.468" viewBox="0 0 88.719 85.468">
  <defs>
    <style>
      .cls-1 {
        fill: #838789;
        fill-rule: evenodd;
      }
    </style>
  </defs>
  <path id="Календарь" class="cls-1" d="M967.224,573.279l-0.584-2.718-12.447-57.946-0.641-2.981-2.985.729-3.859.938a9.413,9.413,0,0,0-3.206-4.322,3.515,3.515,0,0,0-4.514.06c-1.569,1.336-1.729,3.927-1.679,5.989,0,0.194.011,0.377,0.017,0.56l-2.56.626c-0.078-.2-0.187-0.379-0.276-0.571a9.129,9.129,0,0,0-2.912-3.708,3.514,3.514,0,0,0-4.513.059c-1.478,1.261-1.7,3.636-1.683,5.633,0,0.258.007,0.509,0.016,0.753,0,0.04,0,.076.006,0.117l-2.578.629c-0.024-.058-0.057-0.111-0.08-0.169-0.1-.235-0.218-0.458-0.33-0.684a9,9,0,0,0-2.755-3.383,3.515,3.515,0,0,0-4.513.059c-1.39,1.186-1.676,3.36-1.688,5.275,0,0.259,0,.508.011,0.755,0,0.147.007,0.285,0.013,0.426l-2.6.632c-0.063-.154-0.147-0.3-0.215-0.448-0.1-.232-0.21-0.462-0.33-0.684a8.861,8.861,0,0,0-2.6-3.058,3.513,3.513,0,0,0-4.512.059c-1.3,1.111-1.632,3.09-1.677,4.913,0,0.259-.008.508,0,0.758s0.007,0.5.015,0.735l-0.673.164-1.964.429c-0.1-.236-0.219-0.457-0.329-0.684s-0.2-.466-0.33-0.685a8.766,8.766,0,0,0-2.443-2.736,3.515,3.515,0,0,0-4.512.059c-1.219,1.039-1.584,2.834-1.664,4.552-0.012.257-.022,0.511-0.025,0.763s0,0.509.011,0.754l-5.766,1.255-5.353,53.7,18.636-5.414,0.157,0.718,0.155,0.723,0.221,1.044L882.594,581.7l-4.01,1.26,3.915,1.524,17.987,7,0.308,0.119,0,0.015,0.021-.006,0.132,0.052,0.482-.132,36.338-10.086,1.422-.394-0.006-.029,25.34-6.992Zm-26.237-64.043c0.141-.161.15-0.141,0.211-0.13a2.241,2.241,0,0,1,1.075.7,7.049,7.049,0,0,1,1.324,1.855c0.061,0.12.125,0.234,0.18,0.356l-3.5.853c0-.157,0-0.321,0-0.485A5.093,5.093,0,0,1,940.987,509.236Zm-11.845,2.954c0.141-.162.112-0.142,0.173-0.13a2.188,2.188,0,0,1,1.056.7A6.884,6.884,0,0,1,931.5,514.3c0.119,0.208.242,0.41,0.344,0.63l-1.752.463-1.437.387v-0.042c0-.247-0.158-0.5-0.152-0.756A4.621,4.621,0,0,1,929.142,512.19Zm-12.692,5.38a4.154,4.154,0,0,1,.7-2.427c0.141-.161.15-0.141,0.211-0.13a2.239,2.239,0,0,1,1.075.7,6.749,6.749,0,0,1,.959,1.216c0.138,0.217.268,0.441,0.385,0.673,0.039,0.079.09,0.151,0.127,0.233l-3.47.846c0-.115,0-0.233,0-0.35C916.431,518.079,916.437,517.823,916.45,517.57Zm-11.184.527c0.141-.16.133-0.141,0.194-0.13a2.2,2.2,0,0,1,1.063.7,6.677,6.677,0,0,1,.754.9c0.15,0.212.272,0.443,0.4,0.67,0.1,0.169.205,0.331,0.29,0.508,0.008,0.016.013,0.034,0.02,0.051l-3.169.789c0-.218-0.156-0.439-0.153-0.663,0-.256-0.054-0.513-0.033-0.765A3.717,3.717,0,0,1,905.266,518.1Zm-12.656,5.419c0.013-.261.035-0.52,0.069-0.771a3.262,3.262,0,0,1,.629-1.694c0.143-.161.152-0.141,0.212-0.13a2.234,2.234,0,0,1,1.075.7,6.483,6.483,0,0,1,.5.6,7.082,7.082,0,0,1,.477.653c0.138,0.219.269,0.44,0.385,0.672l-3.365.733C892.592,524.024,892.6,523.772,892.61,523.516Zm45.8,55.551-0.717.2-0.717.2-33.913,9-2.212-10.95-0.155-.726-0.155-.727-0.209-.98-0.153-.725-0.153-.723-11.3-46.98,8.133-1.6a22.324,22.324,0,0,1-.184,6.332c-0.431,1.854,2.442,2.641,2.874.786a25.017,25.017,0,0,0,.173-7.814l9.063-2.209a22.385,22.385,0,0,1-.189,6.283c-0.431,1.854,2.442,2.641,2.874.786a25.078,25.078,0,0,0,.18-7.767l9.06-2.208a22.467,22.467,0,0,1-.2,6.237c-0.43,1.854,2.443,2.641,2.874.786a25.112,25.112,0,0,0,.188-7.72l9.059-2.208a22.5,22.5,0,0,1-.2,6.189c-0.43,1.854,2.441,2.641,2.874.786a25.182,25.182,0,0,0,.2-7.674l7.624-1.858,0.766,1.25,0.666-.163c0.021,0.156.04,0.308,0.054,0.466a13.323,13.323,0,0,1-.26,4.241c-0.431,1.854,2.441,2.641,2.873.786a25.247,25.247,0,0,0,.206-7.626l5.1-.938,12.448,60.1Zm-26.124-17.223L903.2,564l-2.182-9.012,9.091-2.162Zm1.915-.571-2.182-9.013,9.092-2.163,2.181,9.013Zm8.819-11.75,9.092-2.162,2.182,9.011-9.091,2.164Zm20.1-4.893,2.181,9.012-4.055.965-0.763.182-0.766.182-3.508.833-2.179-9.013,6.524-1.553,0.763-.181,0.764-.182Zm1.912-.57,9.094-2.162,2.179,9.012-9.09,2.162Zm-22.68,3.6-2.181-9.012,9.092-2.162,2.18,9.012Zm11-2.735-2.18-9.012,9.092-2.162,0.943,3.9,0.551,2.281,0.553,2.279,0.133,0.553-0.185.044-0.762.182-0.764.181Zm17.915-13.908,2.18,9.012-9.09,2.162-1.51-6.235-0.551-2.281-0.122-.5,0.169-.04,0.763-.181Zm-36.231,41.266,0.109,0.448-6.317,1.5-2.774.657-0.127-.522-0.207-.853-0.174-.719-0.174-.717-1.5-6.2,9.091-2.162,1.393,5.752,0.174,0.717,0.174,0.72,0.158,0.654Zm11.017-2.687,0.1,0.4-5.643,1.343-3.451.82-0.115-.475-0.174-.721-0.147-.615-0.175-.717-0.173-.717-1.394-5.769,9.093-2.161,1.285,5.317,0.173,0.718,0.175,0.717,0.1,0.418,0.174,0.72Zm10.45-5.024,0.653,2.69-1.628.389-0.722.171-0.724.173-6.019,1.43-0.1-.426-0.175-.722-0.175-.717-0.09-.376-0.174-.721-0.173-.716-1.291-5.333,9.091-2.162,1.183,4.886,0.173,0.718Zm-49.827-37.214,10.55,43.86L881.2,576.5Zm11.975,50.9,3.33,11.18-16.77-6.422Zm27.236-38.891a2.638,2.638,0,1,1-2.974,2.616A2.812,2.812,0,0,1,925.884,539.359Zm11.091-2.984A2.638,2.638,0,1,1,934,538.992,2.813,2.813,0,0,1,936.975,536.375Zm10.918-2.369a2.638,2.638,0,1,1-2.973,2.617A2.813,2.813,0,0,1,947.893,534.006Zm2.716,10.745a2.638,2.638,0,1,1-2.974,2.617A2.812,2.812,0,0,1,950.609,544.751Zm-11,2.918a2.637,2.637,0,1,1-2.973,2.616A2.811,2.811,0,0,1,939.6,547.669Zm-11,2.743a2.637,2.637,0,1,1-2.973,2.616A2.812,2.812,0,0,1,928.6,550.412ZM906.677,555.7a2.638,2.638,0,1,1-2.974,2.617A2.812,2.812,0,0,1,906.677,555.7Zm11-2.455a2.638,2.638,0,1,1-2.973,2.616A2.812,2.812,0,0,1,917.681,553.242Zm-7.827,13.46a2.638,2.638,0,1,1-2.974,2.617A2.812,2.812,0,0,1,909.854,566.7Zm10.831-2.917a2.638,2.638,0,1,1-2.974,2.617A2.812,2.812,0,0,1,920.685,563.785Zm10.831-2.368a2.638,2.638,0,1,1-2.973,2.616A2.812,2.812,0,0,1,931.516,561.417Z" transform="translate(-878.5 -506.188)"/>
</svg>
