<svg xmlns="http://www.w3.org/2000/svg" width="84.218" height="78.843" viewBox="0 0 84.218 78.843">
  <defs>
    <style>
      .cls-1 {
        fill: #838789;
        fill-rule: evenodd;
      }
    </style>
  </defs>
  <path id="Газета" class="cls-1" d="M482.168,686.556h-81.5a1.36,1.36,0,0,0-1.359,1.359v76.13a1.359,1.359,0,0,0,1.359,1.359h81.5a1.359,1.359,0,0,0,1.359-1.359v-76.13A1.36,1.36,0,0,0,482.168,686.556Zm-1.358,9.063h-6.339v-6.344h6.339v6.344Zm-9.055-6.344v6.344H402.027v-6.344h69.728Zm-69.728,73.411V698.338H480.81v64.348H402.027ZM471.3,723.715H411.535a1.359,1.359,0,0,0,0,2.718H471.3A1.359,1.359,0,1,0,471.3,723.715Zm-33.5,7.25H411.535a1.36,1.36,0,0,0,0,2.719H437.8A1.36,1.36,0,0,0,437.8,730.965Zm0,7.25H411.535a1.36,1.36,0,0,0,0,2.719H437.8A1.36,1.36,0,0,0,437.8,738.215Zm0,7.251H411.535a1.359,1.359,0,0,0,0,2.718H437.8A1.359,1.359,0,0,0,437.8,745.466Zm33.5-14.5h-26.26a1.359,1.359,0,0,0-1.359,1.36v5.437a1.359,1.359,0,1,0,2.717,0v-4.078h23.544v19.032H446.4V743.2a1.359,1.359,0,1,0-2.717,0v10.875a1.359,1.359,0,0,0,1.359,1.359H471.3a1.359,1.359,0,0,0,1.359-1.359V732.325A1.359,1.359,0,0,0,471.3,730.965Zm-33.5,21.751H411.535a1.36,1.36,0,0,0,0,2.719H437.8A1.36,1.36,0,0,0,437.8,752.716ZM460.279,712.9a10.025,10.025,0,0,0,3.051.832c2.364,0.386,2.7.641,2.7,1.377,0,1.074-1.558,1.36-2.479,1.36-1.232,0-2.2-.4-2.422-1a1.358,1.358,0,1,0-2.554.925c0.623,1.724,2.53,2.8,4.976,2.8,3.059,0,5.2-1.678,5.2-4.08a3.456,3.456,0,0,0-1.926-3.229,10.05,10.05,0,0,0-3.052-.831c-2.362-.387-2.7-0.64-2.7-1.375,0-1.075,1.558-1.361,2.48-1.361,1.231,0,2.2.4,2.422,1a1.359,1.359,0,1,0,2.554-.927c-0.625-1.723-2.532-2.793-4.976-2.793-3.06,0-5.2,1.677-5.2,4.079A3.451,3.451,0,0,0,460.279,712.9ZM444.7,718.158a1.358,1.358,0,0,0,2.528.28l1.542-3.045,1.541,3.045a1.362,1.362,0,0,0,1.212.745c0.05,0,.1,0,0.15-0.008a1.359,1.359,0,0,0,1.167-1.017l2.753-10.876a1.358,1.358,0,1,0-2.633-.668l-1.863,7.36-1.115-2.2a1.358,1.358,0,0,0-2.424,0l-1.115,2.2-1.863-7.36a1.358,1.358,0,1,0-2.633.668Zm-14.546,1.025h7.676a1.36,1.36,0,0,0,0-2.719h-6.317v-2.719h3.758a1.36,1.36,0,0,0,0-2.719h-3.758v-2.719h6.317a1.359,1.359,0,0,0,0-2.718h-7.676a1.358,1.358,0,0,0-1.358,1.359v10.875A1.359,1.359,0,0,0,430.157,719.183Zm-14.708,0a1.359,1.359,0,0,0,1.358-1.36v-7.189l6.884,8.072a1.358,1.358,0,0,0,2.391-.883V706.948a1.359,1.359,0,1,0-2.717,0v7.189l-6.884-8.072a1.358,1.358,0,0,0-2.391.883v10.875A1.359,1.359,0,0,0,415.449,719.183Z" transform="translate(-399.313 -686.563)"/>
</svg>
