<svg xmlns="http://www.w3.org/2000/svg" xmlns:xlink="http://www.w3.org/1999/xlink" width="98.72" height="85.468" viewBox="0 0 98.72 85.468">
  <defs>
    <style>
      .cls-1 {
        fill: #f93;
        fill-rule: evenodd;
        filter: url(#filter);
      }
    </style>
    <filter id="filter" x="1034.84" y="506.063" width="98.72" height="85.468" filterUnits="userSpaceOnUse">
      <feFlood result="flood" flood-color="#838789"/>
      <feComposite result="composite" operator="in" in2="SourceGraphic"/>
      <feBlend result="blend" in2="SourceGraphic"/>
    </filter>
  </defs>
  <path id="Блоки_копия_8" data-name="Блоки копия 8" class="cls-1" d="M1101.41,540.146H1067.2a0.924,0.924,0,0,1-.91-0.934V517.256a0.905,0.905,0,1,1,1.81,0v21.021h32.41V517.256a0.905,0.905,0,1,1,1.81,0v21.956A0.924,0.924,0,0,1,1101.41,540.146Zm-5.51-4.175h-2.06a0.935,0.935,0,0,1,0-1.869h2.06A0.935,0.935,0,0,1,1095.9,535.971Zm-13.4,0h-4.13a0.935,0.935,0,0,1,0-1.869h4.13A0.935,0.935,0,0,1,1082.5,535.971Zm-7.73,0h-4.13a0.935,0.935,0,0,1,0-1.869h4.13A0.935,0.935,0,0,1,1074.77,535.971Zm23.2-3.512h-4.13a0.934,0.934,0,0,1,0-1.868h4.13A0.935,0.935,0,0,1,1097.97,532.459Zm-7.73,0h-4.13a0.934,0.934,0,0,1,0-1.868h4.13A0.935,0.935,0,0,1,1090.24,532.459Zm-7.74-3.623h-4.13a0.935,0.935,0,0,1,0-1.868h4.13A0.934,0.934,0,0,1,1082.5,528.836Zm-7.73,0h-4.13a0.915,0.915,0,0,1-.9-0.934v-3.511a0.916,0.916,0,0,1,.9-0.935h4.13a0.925,0.925,0,0,1,.91.935V527.9A0.924,0.924,0,0,1,1074.77,528.836Zm-3.22-1.868h2.32v-1.643h-2.32v1.643Zm18.69-1.643h-4.13a0.935,0.935,0,0,1,0-1.869h4.13A0.935,0.935,0,0,1,1090.24,525.325Zm7.73-3.623h-4.13a0.925,0.925,0,0,1-.91-0.935v-3.511a0.924,0.924,0,0,1,.91-0.934h4.13a0.915,0.915,0,0,1,.9.934v3.511A0.916,0.916,0,0,1,1097.97,521.7Zm-3.23-1.869h2.32V518.19h-2.32v1.643h0ZM1082.5,521.7h-4.13a0.916,0.916,0,0,1-.9-0.935v-3.511a0.915,0.915,0,0,1,.9-0.934h4.13a0.924,0.924,0,0,1,.91.934v3.511A0.925,0.925,0,0,1,1082.5,521.7Zm-3.22-1.869h2.32V518.19h-2.32v1.643Zm10.96-1.643h-4.13a0.934,0.934,0,0,1,0-1.868h4.13A0.935,0.935,0,0,1,1090.24,518.19Zm-15.47,0h-4.13a0.935,0.935,0,0,1,0-1.868h4.13A0.934,0.934,0,0,1,1074.77,518.19Zm26.64-4.049H1067.2a0.924,0.924,0,0,1-.91-0.934v-4.793a0.925,0.925,0,0,1,.91-0.935h2.05a0.935,0.935,0,0,1,0,1.869h-1.15v2.925h32.41v-2.925h-1.16a0.935,0.935,0,0,1,0-1.869h2.06a0.925,0.925,0,0,1,.91.935v4.793A0.924,0.924,0,0,1,1101.41,514.141Zm-4.91-3.382a0.915,0.915,0,0,1-.9-0.934V507a0.905,0.905,0,1,1,1.81,0v2.823A0.924,0.924,0,0,1,1096.5,510.759Zm-24.39,0a0.924,0.924,0,0,1-.91-0.934V507a0.905,0.905,0,1,1,1.81,0v2.823A0.915,0.915,0,0,1,1072.11,510.759Zm21.63-1.411h-18.73a0.935,0.935,0,0,1,0-1.869h18.73A0.935,0.935,0,0,1,1093.74,509.348Zm7.67,56.5H1067.2a0.924,0.924,0,0,1-.91-0.934V542.956a0.905,0.905,0,1,1,1.81,0v21.021h32.41V542.956a0.905,0.905,0,1,1,1.81,0v21.955A0.924,0.924,0,0,1,1101.41,565.845Zm-5.51-4.175h-2.06a0.934,0.934,0,0,1,0-1.868h2.06A0.934,0.934,0,0,1,1095.9,561.67Zm-13.4,0h-4.13a0.935,0.935,0,0,1,0-1.868h4.13A0.934,0.934,0,0,1,1082.5,561.67Zm-7.73,0h-4.13a0.935,0.935,0,0,1,0-1.868h4.13A0.934,0.934,0,0,1,1074.77,561.67Zm23.2-3.511h-4.13a0.934,0.934,0,0,1,0-1.868h4.13A0.935,0.935,0,0,1,1097.97,558.159Zm-7.73,0h-4.13a0.934,0.934,0,0,1,0-1.868h4.13A0.935,0.935,0,0,1,1090.24,558.159Zm-7.74-3.623h-4.13a0.935,0.935,0,0,1,0-1.868h4.13A0.934,0.934,0,0,1,1082.5,554.536Zm-7.73,0h-4.13a0.915,0.915,0,0,1-.9-0.934V550.09a0.916,0.916,0,0,1,.9-0.934h4.13a0.924,0.924,0,0,1,.91.934V553.6A0.924,0.924,0,0,1,1074.77,554.536Zm-3.22-1.868h2.32v-1.643h-2.32v1.643Zm18.69-1.643h-4.13a0.935,0.935,0,0,1,0-1.869h4.13A0.935,0.935,0,0,1,1090.24,551.025Zm7.73-3.624h-4.13a0.924,0.924,0,0,1-.91-0.934v-3.511a0.924,0.924,0,0,1,.91-0.934h4.13a0.915,0.915,0,0,1,.9.934v3.511A0.915,0.915,0,0,1,1097.97,547.4Zm-3.23-1.868h2.32V543.89h-2.32v1.643h0ZM1082.5,547.4h-4.13a0.915,0.915,0,0,1-.9-0.934v-3.511a0.915,0.915,0,0,1,.9-0.934h4.13a0.924,0.924,0,0,1,.91.934v3.511A0.924,0.924,0,0,1,1082.5,547.4Zm-3.22-1.868h2.32V543.89h-2.32v1.643Zm10.96-1.643h-4.13a0.934,0.934,0,0,1,0-1.868h4.13A0.935,0.935,0,0,1,1090.24,543.89Zm-15.47,0h-4.13a0.935,0.935,0,0,1,0-1.868h4.13A0.934,0.934,0,0,1,1074.77,543.89Zm26.64,47.655H1067.2a0.924,0.924,0,0,1-.91-0.934V568.656a0.905,0.905,0,1,1,1.81,0v21.021h32.41V568.656a0.905,0.905,0,1,1,1.81,0v21.955A0.924,0.924,0,0,1,1101.41,591.545Zm-5.51-4.175h-2.06a0.934,0.934,0,0,1,0-1.868h2.06A0.934,0.934,0,0,1,1095.9,587.37Zm-13.4,0h-4.13a0.935,0.935,0,0,1,0-1.868h4.13A0.934,0.934,0,0,1,1082.5,587.37Zm-7.73,0h-4.13a0.935,0.935,0,0,1,0-1.868h4.13A0.934,0.934,0,0,1,1074.77,587.37Zm23.2-3.511h-4.13a0.934,0.934,0,0,1,0-1.868h4.13A0.935,0.935,0,0,1,1097.97,583.859Zm-7.73,0h-4.13a0.934,0.934,0,0,1,0-1.868h4.13A0.935,0.935,0,0,1,1090.24,583.859Zm-7.74-3.623h-4.13a0.935,0.935,0,0,1,0-1.868h4.13A0.934,0.934,0,0,1,1082.5,580.236Zm-7.73,0h-4.13a0.915,0.915,0,0,1-.9-0.934V575.79a0.915,0.915,0,0,1,.9-0.934h4.13a0.924,0.924,0,0,1,.91.934V579.3A0.924,0.924,0,0,1,1074.77,580.236Zm-3.22-1.868h2.32v-1.644h-2.32v1.644Zm18.69-1.644h-4.13a0.934,0.934,0,0,1,0-1.868h4.13A0.935,0.935,0,0,1,1090.24,576.724Zm7.73-3.623h-4.13a0.924,0.924,0,0,1-.91-0.934v-3.511a0.924,0.924,0,0,1,.91-0.934h4.13a0.915,0.915,0,0,1,.9.934v3.511A0.915,0.915,0,0,1,1097.97,573.1Zm-3.23-1.868h2.32V569.59h-2.32v1.643h0ZM1082.5,573.1h-4.13a0.915,0.915,0,0,1-.9-0.934v-3.511a0.915,0.915,0,0,1,.9-0.934h4.13a0.924,0.924,0,0,1,.91.934v3.511A0.924,0.924,0,0,1,1082.5,573.1Zm-3.22-1.868h2.32V569.59h-2.32v1.643Zm10.96-1.643h-4.13a0.934,0.934,0,0,1,0-1.868h4.13A0.935,0.935,0,0,1,1090.24,569.59Zm-15.47,0h-4.13a0.935,0.935,0,0,1,0-1.868h4.13A0.934,0.934,0,0,1,1074.77,569.59Zm-12.3-26.19h-26.91a0.726,0.726,0,0,1-.72-0.734V525.4a0.715,0.715,0,1,1,1.43,0v16.532h25.49V525.4a0.71,0.71,0,1,1,1.42,0v17.267A0.724,0.724,0,0,1,1062.47,543.4Zm-4.34-3.283h-1.62a0.735,0.735,0,0,1,0-1.469h1.62A0.735,0.735,0,0,1,1058.13,540.117Zm-10.53,0h-3.25a0.735,0.735,0,0,1,0-1.469h3.25A0.735,0.735,0,0,1,1047.6,540.117Zm-6.09,0h-3.24a0.735,0.735,0,0,1,0-1.469h3.24A0.735,0.735,0,0,1,1041.51,540.117Zm18.25-2.762h-3.25a0.735,0.735,0,0,1,0-1.469h3.25A0.735,0.735,0,0,1,1059.76,537.355Zm-6.08,0h-3.25a0.735,0.735,0,0,1,0-1.469h3.25A0.735,0.735,0,0,1,1053.68,537.355Zm-6.08-2.849h-3.25a0.735,0.735,0,0,1,0-1.469h3.25A0.735,0.735,0,0,1,1047.6,534.506Zm-6.09,0h-3.24a0.726,0.726,0,0,1-.72-0.735V531.01a0.726,0.726,0,0,1,.72-0.735h3.24a0.726,0.726,0,0,1,.72.735v2.761A0.726,0.726,0,0,1,1041.51,534.506Zm-2.53-1.469h1.82v-1.293h-1.82v1.293Zm14.7-1.293h-3.25a0.735,0.735,0,0,1,0-1.469h3.25A0.735,0.735,0,0,1,1053.68,531.744Zm6.08-2.849h-3.25a0.724,0.724,0,0,1-.71-0.735V525.4a0.724,0.724,0,0,1,.71-0.735h3.25a0.724,0.724,0,0,1,.71.735v2.761A0.724,0.724,0,0,1,1059.76,528.9Zm-2.54-1.469h1.82v-1.292h-1.82v1.292h0Zm-9.62,1.469h-3.25a0.718,0.718,0,0,1-.71-0.735V525.4a0.718,0.718,0,0,1,.71-0.735h3.25a0.724,0.724,0,0,1,.71.735v2.761A0.724,0.724,0,0,1,1047.6,528.9Zm-2.54-1.469h1.82v-1.292h-1.82v1.292Zm8.62-1.292h-3.25a0.735,0.735,0,0,1,0-1.47h3.25A0.735,0.735,0,0,1,1053.68,526.134Zm-12.17,0h-3.24a0.735,0.735,0,0,1,0-1.47h3.24A0.735,0.735,0,0,1,1041.51,526.134Zm20.96-3.185h-26.91a0.725,0.725,0,0,1-.72-0.734v-3.77a0.726,0.726,0,0,1,.72-0.735h1.61a0.735,0.735,0,0,1,0,1.469h-0.9v2.3h25.49v-2.3h-0.91a0.735,0.735,0,0,1,0-1.469h1.62a0.724,0.724,0,0,1,.71.735v3.77A0.723,0.723,0,0,1,1062.47,522.949Zm-3.87-2.659a0.724,0.724,0,0,1-.71-0.735v-2.22a0.715,0.715,0,1,1,1.43,0v2.22A0.726,0.726,0,0,1,1058.6,520.29Zm-19.18,0a0.724,0.724,0,0,1-.71-0.735v-2.22a0.71,0.71,0,1,1,1.42,0v2.22A0.724,0.724,0,0,1,1039.42,520.29Zm17.01-1.111H1041.7a0.735,0.735,0,0,1,0-1.469h14.73A0.735,0.735,0,0,1,1056.43,519.179Zm6.04,44.433h-26.91a0.726,0.726,0,0,1-.72-0.735V545.61a0.715,0.715,0,1,1,1.43,0v16.532h25.49V545.61a0.71,0.71,0,1,1,1.42,0v17.267A0.724,0.724,0,0,1,1062.47,563.612Zm-4.34-3.284h-1.62a0.735,0.735,0,0,1,0-1.469h1.62A0.735,0.735,0,0,1,1058.13,560.328Zm-10.53,0h-3.25a0.735,0.735,0,0,1,0-1.469h3.25A0.735,0.735,0,0,1,1047.6,560.328Zm-6.09,0h-3.24a0.735,0.735,0,0,1,0-1.469h3.24A0.735,0.735,0,0,1,1041.51,560.328Zm18.25-2.761h-3.25a0.735,0.735,0,0,1,0-1.47h3.25A0.735,0.735,0,0,1,1059.76,557.567Zm-6.08,0h-3.25a0.735,0.735,0,0,1,0-1.47h3.25A0.735,0.735,0,0,1,1053.68,557.567Zm-6.08-2.85h-3.25a0.735,0.735,0,0,1,0-1.469h3.25A0.735,0.735,0,0,1,1047.6,554.717Zm-6.09,0h-3.24a0.726,0.726,0,0,1-.72-0.734v-2.762a0.726,0.726,0,0,1,.72-0.734h3.24a0.726,0.726,0,0,1,.72.734v2.762A0.726,0.726,0,0,1,1041.51,554.717Zm-2.53-1.469h1.82v-1.292h-1.82v1.292Zm14.7-1.292h-3.25a0.735,0.735,0,0,1,0-1.469h3.25A0.735,0.735,0,0,1,1053.68,551.956Zm6.08-2.85h-3.25a0.723,0.723,0,0,1-.71-0.734V545.61a0.724,0.724,0,0,1,.71-0.734h3.25a0.724,0.724,0,0,1,.71.734v2.762A0.723,0.723,0,0,1,1059.76,549.106Zm-2.54-1.469h1.82v-1.292h-1.82v1.292h0Zm-9.62,1.469h-3.25a0.717,0.717,0,0,1-.71-0.734V545.61a0.718,0.718,0,0,1,.71-0.734h3.25a0.724,0.724,0,0,1,.71.734v2.762A0.723,0.723,0,0,1,1047.6,549.106Zm-2.54-1.469h1.82v-1.292h-1.82v1.292Zm8.62-1.292h-3.25a0.735,0.735,0,0,1,0-1.469h3.25A0.735,0.735,0,0,1,1053.68,546.345Zm-12.17,0h-3.24a0.735,0.735,0,0,1,0-1.469h3.24A0.735,0.735,0,0,1,1041.51,546.345Zm20.96,37.478h-26.91a0.726,0.726,0,0,1-.72-0.735V565.822a0.715,0.715,0,1,1,1.43,0v16.532h25.49V565.822a0.71,0.71,0,1,1,1.42,0v17.266A0.724,0.724,0,0,1,1062.47,583.823Zm-4.34-3.283h-1.62a0.735,0.735,0,0,1,0-1.47h1.62A0.735,0.735,0,0,1,1058.13,580.54Zm-10.53,0h-3.25a0.735,0.735,0,0,1,0-1.47h3.25A0.735,0.735,0,0,1,1047.6,580.54Zm-6.09,0h-3.24a0.735,0.735,0,0,1,0-1.47h3.24A0.735,0.735,0,0,1,1041.51,580.54Zm18.25-2.762h-3.25a0.735,0.735,0,0,1,0-1.469h3.25A0.735,0.735,0,0,1,1059.76,577.778Zm-6.08,0h-3.25a0.735,0.735,0,0,1,0-1.469h3.25A0.735,0.735,0,0,1,1053.68,577.778Zm-6.08-2.849h-3.25a0.735,0.735,0,0,1,0-1.469h3.25A0.735,0.735,0,0,1,1047.6,574.929Zm-6.09,0h-3.24a0.726,0.726,0,0,1-.72-0.735v-2.761a0.726,0.726,0,0,1,.72-0.735h3.24a0.726,0.726,0,0,1,.72.735v2.761A0.726,0.726,0,0,1,1041.51,574.929Zm-2.53-1.469h1.82v-1.293h-1.82v1.293Zm14.7-1.293h-3.25a0.735,0.735,0,0,1,0-1.469h3.25A0.735,0.735,0,0,1,1053.68,572.167Zm6.08-2.849h-3.25a0.724,0.724,0,0,1-.71-0.735v-2.761a0.724,0.724,0,0,1,.71-0.735h3.25a0.724,0.724,0,0,1,.71.735v2.761A0.724,0.724,0,0,1,1059.76,569.318Zm-2.54-1.469h1.82v-1.293h-1.82v1.293h0Zm-9.62,1.469h-3.25a0.718,0.718,0,0,1-.71-0.735v-2.761a0.718,0.718,0,0,1,.71-0.735h3.25a0.724,0.724,0,0,1,.71.735v2.761A0.724,0.724,0,0,1,1047.6,569.318Zm-2.54-1.469h1.82v-1.293h-1.82v1.293Zm8.62-1.293h-3.25a0.735,0.735,0,0,1,0-1.469h3.25A0.735,0.735,0,0,1,1053.68,566.556Zm-12.17,0h-3.24a0.735,0.735,0,0,1,0-1.469h3.24A0.735,0.735,0,0,1,1041.51,566.556Zm91.33-23.156h-26.92a0.724,0.724,0,0,1-.71-0.734V525.4a0.715,0.715,0,1,1,1.43,0v16.532h25.48V525.4a0.715,0.715,0,1,1,1.43,0v17.267A0.724,0.724,0,0,1,1132.84,543.4Zm-4.34-3.283h-1.62a0.735,0.735,0,0,1,0-1.469h1.62A0.735,0.735,0,0,1,1128.5,540.117Zm-10.54,0h-3.24a0.735,0.735,0,0,1,0-1.469h3.24A0.735,0.735,0,0,1,1117.96,540.117Zm-6.08,0h-3.24a0.735,0.735,0,0,1,0-1.469h3.24A0.735,0.735,0,0,1,1111.88,540.117Zm18.25-2.762h-3.25a0.735,0.735,0,0,1,0-1.469h3.25A0.735,0.735,0,0,1,1130.13,537.355Zm-6.09,0h-3.24a0.735,0.735,0,0,1,0-1.469h3.24A0.735,0.735,0,0,1,1124.04,537.355Zm-6.08-2.849h-3.24a0.735,0.735,0,0,1,0-1.469h3.24A0.735,0.735,0,0,1,1117.96,534.506Zm-6.08,0h-3.24a0.726,0.726,0,0,1-.72-0.735V531.01a0.726,0.726,0,0,1,.72-0.735h3.24a0.726,0.726,0,0,1,.72.735v2.761A0.726,0.726,0,0,1,1111.88,534.506Zm-2.53-1.469h1.82v-1.293h-1.82v1.293Zm14.69-1.293h-3.24a0.735,0.735,0,0,1,0-1.469h3.24A0.735,0.735,0,0,1,1124.04,531.744Zm6.09-2.849h-3.25a0.718,0.718,0,0,1-.71-0.735V525.4a0.718,0.718,0,0,1,.71-0.735h3.25a0.724,0.724,0,0,1,.71.735v2.761A0.724,0.724,0,0,1,1130.13,528.9Zm-2.54-1.469h1.82v-1.292h-1.82v1.292h0Zm-9.63,1.469h-3.24a0.726,0.726,0,0,1-.72-0.735V525.4a0.726,0.726,0,0,1,.72-0.735h3.24a0.726,0.726,0,0,1,.72.735v2.761A0.726,0.726,0,0,1,1117.96,528.9Zm-2.53-1.469h1.82v-1.292h-1.82v1.292Zm8.61-1.292h-3.24a0.735,0.735,0,0,1,0-1.47h3.24A0.735,0.735,0,0,1,1124.04,526.134Zm-12.16,0h-3.24a0.735,0.735,0,0,1,0-1.47h3.24A0.735,0.735,0,0,1,1111.88,526.134Zm20.96-3.185h-26.92a0.723,0.723,0,0,1-.71-0.734v-3.77a0.724,0.724,0,0,1,.71-0.735h1.62a0.735,0.735,0,0,1,0,1.469h-0.9v2.3h25.48v-2.3h-0.91a0.735,0.735,0,0,1,0-1.469h1.63a0.724,0.724,0,0,1,.71.735v3.77A0.723,0.723,0,0,1,1132.84,522.949Zm-3.87-2.659a0.724,0.724,0,0,1-.71-0.735v-2.22a0.71,0.71,0,1,1,1.42,0v2.22A0.718,0.718,0,0,1,1128.97,520.29Zm-19.18,0a0.724,0.724,0,0,1-.71-0.735v-2.22a0.71,0.71,0,1,1,1.42,0v2.22A0.724,0.724,0,0,1,1109.79,520.29Zm17.01-1.111h-14.73a0.735,0.735,0,0,1,0-1.469h14.73A0.735,0.735,0,0,1,1126.8,519.179Zm6.04,44.433h-26.92a0.724,0.724,0,0,1-.71-0.735V545.61a0.715,0.715,0,1,1,1.43,0v16.532h25.48V545.61a0.715,0.715,0,1,1,1.43,0v17.267A0.724,0.724,0,0,1,1132.84,563.612Zm-4.34-3.284h-1.62a0.735,0.735,0,0,1,0-1.469h1.62A0.735,0.735,0,0,1,1128.5,560.328Zm-10.54,0h-3.24a0.735,0.735,0,0,1,0-1.469h3.24A0.735,0.735,0,0,1,1117.96,560.328Zm-6.08,0h-3.24a0.735,0.735,0,0,1,0-1.469h3.24A0.735,0.735,0,0,1,1111.88,560.328Zm18.25-2.761h-3.25a0.735,0.735,0,0,1,0-1.47h3.25A0.735,0.735,0,0,1,1130.13,557.567Zm-6.09,0h-3.24a0.735,0.735,0,0,1,0-1.47h3.24A0.735,0.735,0,0,1,1124.04,557.567Zm-6.08-2.85h-3.24a0.735,0.735,0,0,1,0-1.469h3.24A0.735,0.735,0,0,1,1117.96,554.717Zm-6.08,0h-3.24a0.726,0.726,0,0,1-.72-0.734v-2.762a0.726,0.726,0,0,1,.72-0.734h3.24a0.726,0.726,0,0,1,.72.734v2.762A0.726,0.726,0,0,1,1111.88,554.717Zm-2.53-1.469h1.82v-1.292h-1.82v1.292Zm14.69-1.292h-3.24a0.735,0.735,0,0,1,0-1.469h3.24A0.735,0.735,0,0,1,1124.04,551.956Zm6.09-2.85h-3.25a0.717,0.717,0,0,1-.71-0.734V545.61a0.718,0.718,0,0,1,.71-0.734h3.25a0.724,0.724,0,0,1,.71.734v2.762A0.723,0.723,0,0,1,1130.13,549.106Zm-2.54-1.469h1.82v-1.292h-1.82v1.292h0Zm-9.63,1.469h-3.24a0.725,0.725,0,0,1-.72-0.734V545.61a0.726,0.726,0,0,1,.72-0.734h3.24a0.726,0.726,0,0,1,.72.734v2.762A0.725,0.725,0,0,1,1117.96,549.106Zm-2.53-1.469h1.82v-1.292h-1.82v1.292Zm8.61-1.292h-3.24a0.735,0.735,0,0,1,0-1.469h3.24A0.735,0.735,0,0,1,1124.04,546.345Zm-12.16,0h-3.24a0.735,0.735,0,0,1,0-1.469h3.24A0.735,0.735,0,0,1,1111.88,546.345Zm20.96,37.478h-26.92a0.724,0.724,0,0,1-.71-0.735V565.822a0.715,0.715,0,1,1,1.43,0v16.532h25.48V565.822a0.715,0.715,0,1,1,1.43,0v17.266A0.724,0.724,0,0,1,1132.84,583.823Zm-4.34-3.283h-1.62a0.735,0.735,0,0,1,0-1.47h1.62A0.735,0.735,0,0,1,1128.5,580.54Zm-10.54,0h-3.24a0.735,0.735,0,0,1,0-1.47h3.24A0.735,0.735,0,0,1,1117.96,580.54Zm-6.08,0h-3.24a0.735,0.735,0,0,1,0-1.47h3.24A0.735,0.735,0,0,1,1111.88,580.54Zm18.25-2.762h-3.25a0.735,0.735,0,0,1,0-1.469h3.25A0.735,0.735,0,0,1,1130.13,577.778Zm-6.09,0h-3.24a0.735,0.735,0,0,1,0-1.469h3.24A0.735,0.735,0,0,1,1124.04,577.778Zm-6.08-2.849h-3.24a0.735,0.735,0,0,1,0-1.469h3.24A0.735,0.735,0,0,1,1117.96,574.929Zm-6.08,0h-3.24a0.726,0.726,0,0,1-.72-0.735v-2.761a0.726,0.726,0,0,1,.72-0.735h3.24a0.726,0.726,0,0,1,.72.735v2.761A0.726,0.726,0,0,1,1111.88,574.929Zm-2.53-1.469h1.82v-1.293h-1.82v1.293Zm14.69-1.293h-3.24a0.735,0.735,0,0,1,0-1.469h3.24A0.735,0.735,0,0,1,1124.04,572.167Zm6.09-2.849h-3.25a0.718,0.718,0,0,1-.71-0.735v-2.761a0.718,0.718,0,0,1,.71-0.735h3.25a0.724,0.724,0,0,1,.71.735v2.761A0.724,0.724,0,0,1,1130.13,569.318Zm-2.54-1.469h1.82v-1.293h-1.82v1.293h0Zm-9.63,1.469h-3.24a0.726,0.726,0,0,1-.72-0.735v-2.761a0.726,0.726,0,0,1,.72-0.735h3.24a0.726,0.726,0,0,1,.72.735v2.761A0.726,0.726,0,0,1,1117.96,569.318Zm-2.53-1.469h1.82v-1.293h-1.82v1.293Zm8.61-1.293h-3.24a0.735,0.735,0,0,1,0-1.469h3.24A0.735,0.735,0,0,1,1124.04,566.556Zm-12.16,0h-3.24a0.735,0.735,0,0,1,0-1.469h3.24A0.735,0.735,0,0,1,1111.88,566.556Z" transform="translate(-1034.84 -506.063)"/>
</svg>
