<svg xmlns="http://www.w3.org/2000/svg" width="88.75" height="88.75" viewBox="0 0 88.75 88.75">
  <defs>
    <style>
      .cls-1 {
        fill: #838789;
        fill-rule: evenodd;
      }
    </style>
  </defs>
  <path id="буклет" class="cls-1" d="M583.884,417.4V340.5h32.534v76.9H583.884Zm31.451-73.942H584.967v70.984h30.368V343.455Zm-6.311,7.891H591.278v26.323h17.746V351.346ZM582.405,417.4l-26.619-11.83v-76.9L582.405,340.5v76.9Zm-2.957-74.978-20.7-9.258v70.483l20.7,9.2V342.419ZM617.9,340.5l26.618-11.831v76.9L617.9,417.4V340.5Zm2.957,72.348,20.7-9.2V333.161l-20.7,9.258v70.426Zm2.958-59.174,14.789-7.04v20.621l-14.789,7.04V353.671ZM561.7,356.983l14.787,7.04v10.269l-14.787-7.04V356.983ZM591.278,385.1h17.746a1.479,1.479,0,1,1,0,2.957H591.278A1.479,1.479,0,1,1,591.278,385.1Zm0,5.915h17.746a1.479,1.479,0,1,1,0,2.958H591.278A1.479,1.479,0,0,1,591.278,391.014Zm0,5.915h17.746a1.48,1.48,0,0,1,0,2.959H591.278A1.48,1.48,0,0,1,591.278,396.929Zm-16.252-14.683-12.617-4.486a1.478,1.478,0,0,1,.99-2.786l12.617,4.484A1.479,1.479,0,0,1,575.026,382.246Zm-12.087-.663,12.616,4.484a1.478,1.478,0,0,1-.5,2.871,1.524,1.524,0,0,1-.495-0.085l-12.617-4.485A1.478,1.478,0,1,1,562.939,381.583Zm75.207-2.24-12.817,4.93a1.48,1.48,0,0,1-1.061-2.764l12.816-4.93A1.481,1.481,0,0,1,638.146,379.343Zm-12.461-24.1v15.366l11.669-4.852V349.925Zm-62.39,4.968v5.084l10.976,5.083v-5.083Zm44.251-6.643H592.757v23h14.789v-23Z" transform="translate(-555.781 -328.656)"/>
</svg>
