<svg xmlns="http://www.w3.org/2000/svg" width="59.812" height="85.688" viewBox="0 0 59.812 85.688">
  <defs>
    <style>
      .cls-1 {
        fill: #838789;
        fill-rule: evenodd;
      }
    </style>
  </defs>
  <path id="Плакат" class="cls-1" d="M461.263,507.784h-48.2c-1.066,0-3.9-.012-3.9-0.012s0.012,2.834.012,3.9v74.14c0,1.067-.074,3.842-0.074,3.842s0.086,0.045,3.961.045h48.2c1.067,0,3.9.013,3.9,0.013s-0.013-2.891-.013-3.958V511.672c0-1.067.07-3.785,0.07-3.785s-2.888-.1-3.958-0.1h0Zm-48.2-1.866h48.2c1.582,0,5.854.014,5.854,0.014s-0.1,4.155-.1,5.74v74.14c0,1.584.044,5.8,0.044,5.8s-4.215-.044-5.8-0.044h-48.2c-1.584,0-5.682-.129-5.682-0.129s-0.073-3.877-.073-5.624v-74.14c0-1.583.015-5.738,0.015-5.738S411.483,505.918,413.065,505.918Zm49.134,41.9a0.933,0.933,0,0,1-1.866,0V512.605H414v39.106h47.265a0.933,0.933,0,1,1,0,1.866h-48.2a0.934,0.934,0,0,1-.933-0.934V511.672a0.934,0.934,0,0,1,.933-0.934h48.2a0.934,0.934,0,0,1,.933.934v36.151h0Zm-34.674-26.239a4.544,4.544,0,1,1-3.219,1.331,4.539,4.539,0,0,1,3.219-1.331h0Zm1.9,2.651a2.685,2.685,0,1,0,.785,1.9A2.681,2.681,0,0,0,429.42,524.235Zm-0.962-5.333a0.934,0.934,0,0,1-1.868,0v-2.411a0.933,0.933,0,0,1,1.866,0V518.9h0Zm-10.575,29.856a0.933,0.933,0,0,1,0-1.866h4.433l4.548-4.548a0.934,0.934,0,0,1,1.32,0l0.048,0.053,4.109,4.11,11.394-11.393a0.935,0.935,0,0,1,1.319,0l6.025,6.025a0.933,0.933,0,0,1-1.319,1.32l-5.364-5.367L433,548.484l0,0,0,0a0.93,0.93,0,0,1-1.315,0l-4.157-4.159-4.163,4.163a0.933,0.933,0,0,1-.661.274h-4.82Zm35.284-2.892a0.933,0.933,0,0,1,1.319-1.32l2.344,2.344h4.433a0.933,0.933,0,0,1,0,1.866h-4.82a0.929,0.929,0,0,1-.661-0.272Zm-24.709-10.094a0.933,0.933,0,1,1-1.866,0v-2.41a0.933,0.933,0,0,1,1.866,0v2.41Zm6.295-8.707a0.933,0.933,0,1,1,0-1.866h2.41a0.933,0.933,0,1,1,0,1.866h-2.41Zm-16.87,0a0.933,0.933,0,1,1,0-1.866h2.41a0.933,0.933,0,1,1,0,1.866h-2.41Zm15.415-5.386a0.933,0.933,0,0,1-1.32-1.319l1.7-1.705a0.933,0.933,0,0,1,1.32,1.32Zm-11.936,11.93a0.931,0.931,0,0,1-1.312-1.32l1.7-1.7a0.931,0.931,0,0,1,1.313,1.32Zm1.7-13.249a0.93,0.93,0,1,1-1.311,1.319l-1.7-1.7a0.931,0.931,0,0,1,1.312-1.32ZM435,532.288a0.933,0.933,0,1,1-1.32,1.319l-1.7-1.7a0.933,0.933,0,1,1,1.32-1.32Zm11.56,14.69a0.933,0.933,0,1,1-1.319-1.32l1.506-1.506,1.507-1.507,1.506-1.506a0.933,0.933,0,0,1,1.319,1.32l-1.506,1.506-1.506,1.507Zm5.065-17.5a0.933,0.933,0,0,1,0-1.866h2.41a1.466,1.466,0,0,0,1.042-.431l0,0a1.478,1.478,0,0,0,0-2.084l0,0a1.478,1.478,0,0,0-1.044-.432H452.83a0.933,0.933,0,0,1-.932-0.933V523.7a2.679,2.679,0,0,0-.786-1.869l0,0a2.683,2.683,0,0,0-4.575,1.9,0.933,0.933,0,0,1-.933.933h-1.207a1.473,1.473,0,0,0-1.041.43l0,0a1.48,1.48,0,0,0,0,2.084l0,0a1.48,1.48,0,0,0,1.041.429h2.41a0.933,0.933,0,1,1,0,1.866h-2.41a3.338,3.338,0,0,1-2.357-.981l0,0a3.321,3.321,0,0,1,0-4.715l0,0a3.342,3.342,0,0,1,2.357-.98h0.37a4.538,4.538,0,0,1,7.659-2.28l0,0a4.557,4.557,0,0,1,1.238,2.277h0.371a3.335,3.335,0,0,1,2.358.98l0,0a3.323,3.323,0,0,1,0,4.715l0,0a3.332,3.332,0,0,1-2.358.981h-2.41v0Zm-2.354,2.739a0.933,0.933,0,1,1-1.319-1.32l1.506-1.506,1.507-1.507a0.933,0.933,0,1,1,1.319,1.32l-1.506,1.506Zm-32.719,27.624H459.07v3.7H416.552v-3.7Zm2.776,10.084v-1.849h35.046v1.849H419.328Zm0,5.285v-1.848h34.587v1.848H419.328Zm-0.114,4.826v-1.848h34.815v1.848H419.214Z" transform="translate(-407.313 -505.906)"/>
</svg>
