<svg xmlns="http://www.w3.org/2000/svg" width="64.31" height="88.843" viewBox="0 0 64.31 88.843">
  <defs>
    <style>
      .cls-1 {
        fill: #838789;
        fill-rule: evenodd;
      }
    </style>
  </defs>
  <path id="Путеводитель" class="cls-1" d="M1105.66,690.406h-2.02v-3.082a4.981,4.981,0,0,0-1.91-3.975,7.047,7.047,0,0,0-5.88-1.111l-38.09,8.168h-1.29a7.515,7.515,0,0,0-7.57,7.449v65.6a7.517,7.517,0,0,0,7.57,7.45h49.19a7.523,7.523,0,0,0,7.57-7.45v-65.6A7.515,7.515,0,0,0,1105.66,690.406Zm-9.1-6.276a3.785,3.785,0,0,1,3.08.46c0.44,0.351,1.42.83,1.42,1.422l0.37,4.018-34.01.376Zm15.18,79.554c0,2.413-3.4,5.185-5.86,5.185l-48.63.605c-2.45,0-6.46-3.176-6.46-5.589l0.4-67.266a4.422,4.422,0,0,1,4.45-4.378l50.65,0.2c2.45,0,5.05,2.368,5.05,4.782Zm-19.42-42.219-0.31-9.981a3.439,3.439,0,0,0-3.56-3.3l-11.55.34a2.409,2.409,0,0,0-1.75.63c-0.52.539-.7,1.558,0.48,2.654l3.01,2.783c-3.5,1.674-11.32,6.211-14.52,14.283-0.08.185-.14,0.378-0.21,0.571-0.15.413-.29,0.833-0.41,1.263-0.08.262-.15,0.524-0.21,0.79-0.05.2-.11,0.383-0.16,0.588a16.425,16.425,0,0,0-.33,3.435c0,0.017-.01.033-0.01,0.049s0.01,0.034.01,0.049a9.086,9.086,0,0,0,.05.973,18.265,18.265,0,0,0,36.48-1.022A17.835,17.835,0,0,0,1092.32,721.465ZM1064.74,735.5h0.04c-0.02.033-.03,0.06-0.05,0.1C1064.73,735.559,1064.74,735.531,1064.74,735.5Zm0.36,5.482a15.653,15.653,0,0,1-.67-2.546,2.549,2.549,0,0,0,1.1-.515,21.34,21.34,0,0,0,1.46-2.431h3.49a4.488,4.488,0,0,1,1.36.1v0.1a17.237,17.237,0,0,0,1.02,5.28,0.881,0.881,0,0,1-.89,1.266h-5A2.091,2.091,0,0,1,1065.1,740.981Zm2.72-6.843c0.19-.308.4-0.619,0.61-0.931a26.8,26.8,0,0,1,3.91-4.5,1.026,1.026,0,0,1,.2.964,21.245,21.245,0,0,0-.54,3.116,1.516,1.516,0,0,1-1.48,1.346h-2.7Zm10.43,17.818a16.93,16.93,0,0,1-11.26-7.21c-0.42-.623-0.1-1.153.66-1.153h4.89a2.424,2.424,0,0,1,1.97,1.216,27.336,27.336,0,0,0,2.6,4.154l1.65,2.1C1079.23,751.648,1078.99,752.078,1078.25,751.956Zm1.29-2.122-1.34-1.7a23.974,23.974,0,0,1-2.14-3.34,0.759,0.759,0,0,1,.75-1.2H1079a1.364,1.364,0,0,1,1.38,1.347v4.612h0C1080.38,750.3,1080,750.423,1079.54,749.834Zm0.84-8.946a1.357,1.357,0,0,1-1.37,1.352h-2.81a2.139,2.139,0,0,1-1.88-1.259,16.541,16.541,0,0,1-1.11-5.3,0.314,0.314,0,0,1,.01-0.1,4.88,4.88,0,0,1,1.37-.1h4.42a1.357,1.357,0,0,1,1.37,1.35v4.052Zm-1.37-6.75h-4.37a1.222,1.222,0,0,1-1.26-1.344,19.432,19.432,0,0,1,.59-3.129,1.951,1.951,0,0,1,1.79-1.288h3.25a1.366,1.366,0,0,1,1.37,1.352v3.059h0A1.359,1.359,0,0,1,1079.01,734.138Zm1.37-8.461a1.358,1.358,0,0,1-1.37,1.35h-2.69a0.7,0.7,0,0,1-.82-0.866,33.645,33.645,0,0,1,4.88-2.856v2.372Zm-14.81,8.451a1.252,1.252,0,0,1-.67-0.229c1.62-12.755,15.3-18.347,15.45-18.4l1.17-.53-1.15-1.128-3.56-3.25a2.235,2.235,0,0,1-.29-0.324,1.851,1.851,0,0,1,.43-0.055l11.55-.342a1.737,1.737,0,0,1,1.8,1.669l0.35,11.367a1.549,1.549,0,0,1-.03.426,2.092,2.092,0,0,1-.34-0.258l-4.03-3.731C1086.11,719.366,1072.46,722.447,1065.57,734.128Zm20.48-7.1h-2.93a1.358,1.358,0,0,1-1.37-1.35v-3c0.74-.316,1.42-0.578,2.01-0.79a27.67,27.67,0,0,1,2.99,3.959A0.724,0.724,0,0,1,1086.05,727.027Zm2.38,2.63a20.974,20.974,0,0,1,.63,3.137,1.216,1.216,0,0,1-1.26,1.344h-4.68a1.366,1.366,0,0,1-1.37-1.352v-3.059a1.366,1.366,0,0,1,1.37-1.351h3.5A1.984,1.984,0,0,1,1088.43,729.657Zm-6.68,7.182a1.358,1.358,0,0,1,1.37-1.35h4.75a11.457,11.457,0,0,1,1.37.042v0.041a15.7,15.7,0,0,1-1.14,5.417,2.155,2.155,0,0,1-1.89,1.251h-3.09a1.357,1.357,0,0,1-1.37-1.352v-4.049Zm0,12.769V744.94a1.364,1.364,0,0,1,1.37-1.35h2.46a0.748,0.748,0,0,1,.73,1.2,25.629,25.629,0,0,1-2.24,3.337l-1.46,1.783C1082.14,750.487,1081.75,750.353,1081.75,749.608Zm13.39-4.867a16.916,16.916,0,0,1-11.22,7.207c-0.74.125-.97-0.3-0.5-0.878l1.72-2.1a26.886,26.886,0,0,0,2.71-4.173,2.472,2.472,0,0,1,1.99-1.209h4.64C1095.24,743.59,1095.56,744.123,1095.14,744.741Zm2.82-9.169a16.179,16.179,0,0,1-.93,5.409,2.1,2.1,0,0,1-1.87,1.261h-4.72a0.877,0.877,0,0,1-.89-1.264,16.177,16.177,0,0,0,1.07-5.406v-0.04a10.552,10.552,0,0,1,1.37-.04h4.59a12.123,12.123,0,0,1,1.38.04v0.04Zm-1.14-5.957a17,17,0,0,1,.89,3.183,1.152,1.152,0,0,1-1.2,1.34h-4.59a1.526,1.526,0,0,1-1.49-1.346,22.855,22.855,0,0,0-.56-3.122,0.958,0.958,0,0,1,.97-1.294h4.05A2.233,2.233,0,0,1,1096.82,729.615Zm-2.66-2.588h-3.87a2.963,2.963,0,0,1-1.45-.2c-0.03-.066-0.06-0.134-0.09-0.2a25.727,25.727,0,0,0-3.58-5.2c0.24-.07.44-0.13,0.61-0.175l3.32,3.04c1.19,1.1,2.21.854,2.73,0.315a2.123,2.123,0,0,0,.48-1.341,16.49,16.49,0,0,1,2.46,2.636C1095.21,726.506,1094.91,727.027,1094.16,727.027Z" transform="translate(-1048.91 -682.063)"/>
</svg>
