<svg xmlns="http://www.w3.org/2000/svg" width="107.156" height="75.469" viewBox="0 0 107.156 75.469">
  <defs>
    <style>
      .cls-1 {
        fill: #838789;
        fill-rule: evenodd;
      }
    </style>
  </defs>
  <path id="Книга" class="cls-1" d="M975.942,341.9H962.007c-9.388-4.138-17.382-6.254-23.809-6.254-8.185,0-12.23,3.418-14.193,6.254h-0.648c-1.963-2.836-6.009-6.254-14.194-6.254-6.428,0-14.421,2.116-23.809,6.254H871.416a1.319,1.319,0,0,0-1.31,1.327v63.135a1.319,1.319,0,0,0,1.31,1.327h44.89c2.189,3.186,5.963,3.445,7.127,3.445,0.106,0,.173,0,0.247,0s0.14,0,.246,0c1.165,0,4.94-.259,7.128-3.445h44.888a1.318,1.318,0,0,0,1.31-1.327V343.224A1.318,1.318,0,0,0,975.942,341.9Zm-51.084,4.115a5.23,5.23,0,0,1,.188-0.605c0.02-.057.049-0.125,0.074-0.187,0.079-.2.176-0.425,0.3-0.67a9.638,9.638,0,0,1,1.955-2.655c1.908-1.846,5.2-3.6,10.826-3.6,4.689,0,10.314,1.219,16.786,3.6,2.062,0.759,4.228,1.656,6.464,2.655,2.316,1.033,4.7,2.158,7.191,3.446v50.69c-5.135-2.462-19.516-8.827-30.973-8.827-6.42,0-10.256,2.049-12.546,4.731-0.084.1-.182,0.188-0.261,0.29V346.012h0Zm39.126,53.472H925.31c1.657-4.673,5.7-6.971,12.353-6.971C946.5,392.513,957.541,396.675,963.984,399.484Zm-78.071-54.933c2.236-1,4.4-1.895,6.464-2.654,6.473-2.381,12.1-3.6,16.786-3.6,5.633,0,8.918,1.753,10.827,3.6a9.65,9.65,0,0,1,1.954,2.654c0.123,0.245.218,0.469,0.3,0.669v49.37c-2.291-2.682-6.125-4.731-12.544-4.731-11.458,0-25.841,6.365-30.975,8.827V348C881.216,346.71,883.6,345.585,885.913,344.551Zm36.136,54.933H883.376c6.442-2.809,17.479-6.971,26.321-6.971C916.347,392.513,920.393,394.811,922.049,399.484Zm52.584,5.548h-44.3a1.294,1.294,0,0,0-1.02.551c-0.4,1.45-2.043,2.606-4.189,3a8.842,8.842,0,0,1-1.57.155,8.708,8.708,0,0,1-1.309-.1c-2.433-.365-4.265-1.714-4.5-3.373a1.285,1.285,0,0,0-.708-0.228H872.726V344.551h6.993c-0.966.48-1.917,0.938-2.907,1.456a1.326,1.326,0,0,0-.709,1.18v53.626a1.35,1.35,0,0,0,.152.591,1.661,1.661,0,0,0,.094.142,1.3,1.3,0,0,0,.306.321c0.03,0.02.044,0.057,0.075,0.076s0.05,0.01.073,0.024a1.253,1.253,0,0,0,.475.145,0.975,0.975,0,0,0,.105.021c0.01,0,.02,0,0.03,0h42.733a12.152,12.152,0,0,1,2.1-.216l0.26-.008c0.112,0,.231,0,0.345,0h0.011c0.081,0,.16,0,0.241,0,0.152,0,.3,0,0.451,0,0.241,0,.469.007,0.7,0.011,0.08,0,.162,0,0.24,0h0.015l0.352,0.01c0.09,0,.172.012,0.261,0.016a11.547,11.547,0,0,1,1.725.195h43.1c0.01,0,.019,0,0.029,0a0.994,0.994,0,0,0,.1-0.021,1.238,1.238,0,0,0,.48-0.149,0.508,0.508,0,0,0,.074-0.02c0.031-.021.045-0.059,0.075-0.08a1.28,1.28,0,0,0,.3-0.319,1.511,1.511,0,0,0,.1-0.141,1.323,1.323,0,0,0,.152-0.591V347.185a1.333,1.333,0,0,0-.707-1.18c-0.992-.516-1.944-0.976-2.909-1.455h6.993v60.482Z" transform="translate(-870.094 -335.656)"/>
</svg>
