<svg xmlns="http://www.w3.org/2000/svg" width="93.156" height="93.25" viewBox="0 0 93.156 93.25">
  <defs>
    <style>
      .cls-1 {
        fill: #838789;
        fill-rule: evenodd;
      }
    </style>
  </defs>
  <path id="Упаковка" class="cls-1" d="M647.047,719.024l-8.447-25.43a1.116,1.116,0,0,0-.745-0.719l-45.21-13.3a1.1,1.1,0,0,0-.9.125l-33.621,21.109a1.112,1.112,0,0,0-.512.794l-3.644,26.26a1.116,1.116,0,0,0,.687,1.191l7.054,2.851,0,18.3a1.123,1.123,0,0,0,.648,1.016l45.63,21.039v0a0.862,0.862,0,0,0,.149.2,1.111,1.111,0,0,0,1.576-.058L638.2,741.662a1.109,1.109,0,0,0,.3-0.76V728.736l8.3-8.579A1.122,1.122,0,0,0,647.047,719.024Zm-86.118-17.337L592.1,682.115v29.3Zm42.247,46.983a1.129,1.129,0,0,0,.955-0.06,1.111,1.111,0,0,0,.559-0.78l2.971-16.549v38.371L563.936,749.49l0-16.68Zm4.454-29.822-4.892,27.232-46.446-18.771,3.287-23.7,48.112,15.018A1.132,1.132,0,0,0,607.63,718.848ZM634.7,694.277l-25.9,22.352-14.462-4.514V682.408Zm10.022,24.811-25.6,26.464-9.326-26.83,27.047-23.344Zm-34.826,6.706L617.611,748a1.115,1.115,0,0,0,.811.725,1.133,1.133,0,0,0,1.042-.314l16.8-17.37v9.421l-26.372,28.465V725.794Z" transform="translate(-553.969 -679.531)"/>
</svg>
