<svg xmlns="http://www.w3.org/2000/svg" width="85.937" height="85.969" viewBox="0 0 85.937 85.969">
  <defs>
    <style>
      .cls-1 {
        fill: #838789;
        fill-rule: evenodd;
      }
    </style>
  </defs>
  <path id="Папка" class="cls-1" d="M798.915,584.9a1.343,1.343,0,0,1-2.686,0v-44.32h-28.2a1.351,1.351,0,0,1-1.017-.464L762.1,535.2H721.017v53.722H801.6v-44.32a1.344,1.344,0,0,1,2.687,0v45.666a1.346,1.346,0,0,1-1.343,1.343H719.673a1.343,1.343,0,0,1-1.342-1.343v-56.41a1.342,1.342,0,0,1,1.342-1.343h42.976v0a1.344,1.344,0,0,1,.943.389l4.984,4.978H797.57a1.345,1.345,0,0,1,1.343,1.343V584.9h0ZM723.7,528.487a1.344,1.344,0,0,1-2.687,0V507a1.344,1.344,0,0,1,1.344-1.343H773.4A1.344,1.344,0,0,1,774.739,507v26.86a1.344,1.344,0,0,1-2.687,0V508.343H723.7v20.144Zm9.4-12.083a1.343,1.343,0,0,1,0-2.686h29.544a1.343,1.343,0,1,1,0,2.686H733.107Zm56.408,0a1.343,1.343,0,1,1,0-2.686h5.373a1.345,1.345,0,0,1,1.344,1.343v18.8a1.344,1.344,0,0,1-2.687,0V516.4h-4.03Zm-56.408,10.748a1.343,1.343,0,1,1,0-2.686h29.544a1.343,1.343,0,1,1,0,2.686H733.107Zm45.656-13.431a1.344,1.344,0,0,1,0-2.687h5.379a1.345,1.345,0,0,1,1.343,1.344v21.478a1.343,1.343,0,1,1-2.686,0V513.721h-4.036Z" transform="translate(-718.344 -505.656)"/>
</svg>
