<svg xmlns="http://www.w3.org/2000/svg" width="60.093" height="84.344" viewBox="0 0 60.093 84.344">
  <defs>
    <style>
      .cls-1 {
        fill: #838789;
        fill-rule: evenodd;
      }
    </style>
  </defs>
  <path id="Брошюры" class="cls-1" d="M732.189,339.539v75.885h60.08V341.31h-9.294V331.08Zm2.276,31.422c1.685-1.743,10.109-9.091,24.351-2.287a31.558,31.558,0,0,0,23.278,1.757c0.815,1.166-1.252,3.044-1,2.947a6.519,6.519,0,0,1-.259.873c-2.332,2.9-6.913,5.721-13.724,7.42a25.931,25.931,0,0,1-12,.482c-6.305-1.366-12.291-3.915-20.648,6.653V370.961Zm55.643-27.384v69.7H734.465V398.147c0.185-.092,1.511-2.073,1.644-2.248,8.41-8.769,12.448-8.41,19.1-6.579-3.565-.983,12.46,1.687,13.656,1.459,4.84-.925,7.782-2.123,10.542-4.064,0.5-.354.982-0.714,1.427-1.079,0.514-.425.8-0.85,1.247-1.278a22.309,22.309,0,0,0,5.033-6.763c0.248-.743.561-1.543-0.186-1.791a1.429,1.429,0,0,0-1.8.894,14.939,14.939,0,0,1-2.147,3.746,19.425,19.425,0,0,1-1.427,1.676c-0.425.444-.908,0.894-1.427,1.341a24.733,24.733,0,0,1-11.8,5.42c-4.663.892-8.281-.1-11.78-1.069-6.45-1.778-12.565-3.458-22.078,7.945v-2.128c8.526-12.436,13.37-11.393,20.041-9.951a28.2,28.2,0,0,0,13.119-.5c5.762-1.436,9.747-3.053,12.5-5.623,0.522-.489.99-0.977,1.426-1.461,0.534-.6,1.012-1.182,1.427-1.75a18.13,18.13,0,0,0,2.805-5.382,1.419,1.419,0,0,0-.667-1.6,1.436,1.436,0,0,0-1.728.23,5.017,5.017,0,0,1-.41.357,10.006,10.006,0,0,1-1.427.94,12.912,12.912,0,0,1-1.426.678c-3.552,1.437-10.087,2.388-20.071-2.381-12.752-6.094-21.538-1.765-25.585,1.287v-24.9h55.644Zm-4.28,15.646H738.745a1.422,1.422,0,1,0,0,2.844h47.083A1.422,1.422,0,1,0,785.828,359.223ZM735.891,345v9.957L745.879,345h-9.988Zm45.657,0h-2.854l1.427,1.423,1.427,1.422,1.427,1.422,5.707,5.69V345h-7.134Zm-37.614,64.912-8.043-8.017v9.956h9.988l-0.713-.711Zm44.748,1.939v-9.956l-9.988,9.956h9.988Zm-15.7-12.8h-21.4a1.423,1.423,0,1,0,0,2.845h21.4A1.423,1.423,0,1,0,772.987,399.049Zm0,4.267h-21.4a1.423,1.423,0,1,0,0,2.845h21.4a1.425,1.425,0,0,0,1.427-1.423,1.4,1.4,0,0,0-.036-0.182A1.411,1.411,0,0,0,772.987,403.316Zm8.111-69.735v7.494l-46.911.253Zm6.666,71.733V410.4H782.1Zm-50.835,0,0-.577v5.777l6.354,0.115Zm6.007-58.808-6.123,6.932,0.231-6.816Zm44.944,0.231-0.116,5.777-6.354-5.892Z" transform="translate(-732.188 -331.094)"/>
</svg>
